<svg xmlns="http://www.w3.org/2000/svg" viewBox="0 0 200 200">
  <defs>
    <linearGradient id="grad1" x1="0%" y1="0%" x2="100%" y2="100%">
      <stop offset="0%" style="stop-color:#409eff;stop-opacity:1" />
      <stop offset="100%" style="stop-color:#36d1dc;stop-opacity:1" />
    </linearGradient>
    <linearGradient id="grad2" x1="0%" y1="0%" x2="100%" y2="100%">
      <stop offset="0%" style="stop-color:#667eea;stop-opacity:1" />
      <stop offset="100%" style="stop-color:#764ba2;stop-opacity:1" />
    </linearGradient>
    <filter id="shadow" x="-20%" y="-20%" width="140%" height="140%">
      <feDropShadow dx="2" dy="4" stdDeviation="3" flood-color="#000" flood-opacity="0.2"/>
    </filter>
  </defs>

  <!-- 背景圆角矩形 -->
  <rect x="10" y="10" width="180" height="180" rx="40" fill="url(#grad1)" filter="url(#shadow)"/>

  <!-- 字母 L -->
  <path d="M55 60 L55 140 L95 140 L95 125 L75 125 L75 60 Z" fill="white" opacity="0.95"/>

  <!-- 字母 B -->
  <path d="M105 60 L135 60 C150 60 155 70 155 80 C155 90 150 95 145 97 C152 99 158 105 158 115 C158 128 145 140 130 140 L105 140 Z M120 75 L120 92 L132 92 C138 92 140 88 140 83.5 C140 79 138 75 132 75 Z M120 105 L120 125 L133 125 C140 125 143 120 143 115 C143 110 140 105 133 105 Z" fill="white" opacity="0.95"/>
</svg>